<svg xmlns="http://www.w3.org/2000/svg" xmlns:xlink="http://www.w3.org/1999/xlink" version="1.1" x="0px" y="0px" viewBox="0 0 512 640" style="enable-background:new 0 0 512 512;" xml:space="preserve"><g><g><path d="M218.832,109.135c-5.393,1.425-11.44,2.716-16.625,4.466l7.516,27.886c5.233-1.041,12.319-2.972,17.475-4.652    l-7.523-27.902L218.832,109.135z M200.583,104.185l15.81-4.216c2.171-0.583,4.406-0.654,6.188-0.296    c2.905,0.599,5.08,2.28,5.782,4.902c2.552,9.57,7.046,22.922,8.639,32.199c0.461,2.458-0.578,4.792-2.64,6.612    c-1.36,1.199-3.327,2.288-5.53,2.863l-15.814,4.203c-2.211,0.607-4.422,0.653-6.235,0.295c-2.905-0.599-5.044-2.28-5.734-4.885    l-8.531-31.717c-0.734-2.622,0.313-5.166,2.516-7.11l0.361-0.296C196.746,105.656,198.564,104.731,200.583,104.185z     M93.115,142.654l-16.625,4.482l7.516,27.902c5.032-0.885,12.476-3.019,17.476-4.667l-7.524-27.887L93.115,142.654z     M74.865,137.723c5.229-1.385,10.806-3.082,16.039-4.28c2.135-0.498,4.257-0.56,5.963-0.218c2.905,0.607,5.036,2.256,5.778,4.886    c2.632,9.757,6.89,22.588,8.643,32.182c0.458,2.428-0.55,4.778-2.604,6.615c-1.396,1.229-3.367,2.288-5.538,2.872    c-5.353,1.275-10.734,3.073-16.079,4.286c-2.131,0.545-4.266,0.576-5.999,0.234c-2.873-0.607-5.048-2.28-5.742-4.902    l-8.523-31.715c-0.734-2.63,0.313-5.136,2.516-7.104C70.716,139.363,72.654,138.298,74.865,137.723z M155.949,125.895    l-16.616,4.498l7.516,27.87c5.068-0.887,12.516-3.017,17.467-4.684l-7.476-27.856L155.949,125.895z M137.74,120.963    c5.232-1.417,10.81-3.098,16.047-4.265c2.086-0.545,4.217-0.583,5.958-0.233c2.905,0.575,5.04,2.272,5.734,4.854    c2.632,9.79,6.898,22.613,8.644,32.183c0.505,2.428-0.55,4.793-2.604,6.638c-1.388,1.237-3.327,2.28-5.538,2.871    c-5.345,1.259-10.726,3.065-16.079,4.279c-2.123,0.529-4.258,0.583-5.959,0.233c-2.909-0.591-5.04-2.288-5.774-4.917    l-8.522-31.669c-0.694-2.66,0.341-5.174,2.552-7.126C133.551,122.595,135.537,121.552,137.74,120.963z M344.547,75.56    l-16.616,4.498l7.476,27.878c5.08-0.887,12.516-3.011,17.508-4.667l-7.516-27.865L344.547,75.56z M326.306,70.62    c5.229-1.385,10.806-3.082,16.03-4.264c2.135-0.522,4.266-0.562,5.971-0.21c2.906,0.583,5.037,2.256,5.734,4.862    c2.641,9.758,6.898,22.613,8.68,32.183c0.457,2.428-0.55,4.778-2.641,6.63c-1.352,1.237-3.33,2.286-5.501,2.861    c-5.345,1.269-10.726,3.068-16.071,4.281c-2.131,0.545-4.266,0.575-6.007,0.234c-2.877-0.576-5.04-2.272-5.733-4.902    l-8.563-31.701c-0.694-2.646,0.353-5.15,2.556-7.118C322.156,72.284,324.087,71.195,326.306,70.62z M114.499,379.201    c-2.632,0-4.767-2.127-4.767-4.756c0-2.622,2.135-4.748,4.767-4.748h303.85c2.636,0,4.775,2.126,4.775,4.748    c0,2.629-2.14,4.756-4.775,4.756H114.499z M114.499,425.113c-2.632,0-4.767-2.126-4.767-4.731c0-2.622,2.135-4.748,4.767-4.748    h303.85c2.636,0,4.775,2.126,4.775,4.748c0,2.605-2.14,4.731-4.775,4.731H114.499z M469.839,211.236H63.008    c-4.563,0-8.752,1.845-11.733,4.84c-3.025,3.02-4.923,7.152-4.923,11.726v43.899h440.113v-43.899c0-4.574-1.858-8.707-4.852-11.71    C478.599,213.081,474.41,211.236,469.839,211.236z M63.008,201.736h406.831c7.175,0,13.72,2.934,18.438,7.642    c4.768,4.784,7.713,11.289,7.713,18.424v48.639c0,2.63-2.135,4.747-4.768,4.747H41.584c-2.592,0-4.723-2.117-4.723-4.747v-48.639    c0-7.166,2.905-13.654,7.66-18.386C49.296,204.669,55.841,201.736,63.008,201.736z M443.692,34.53L33.679,143.932    c-2.905,0.793-5.265,2.699-6.657,5.135c-1.437,2.428-1.906,5.399-1.124,8.325l9.217,34.197c0.814,2.817,2.672,5.065,5.08,6.444    c2.359,1.345,5.264,1.858,8.125,1.143L458.567,89.721c2.897-0.793,5.265-2.699,6.657-5.127c1.437-2.436,1.906-5.408,1.123-8.341    l-9.141-33.973c-0.771-2.832-2.592-5.112-4.919-6.535l-0.229-0.118C449.615,34.235,446.638,33.737,443.692,34.53z M31.243,134.797    L441.249,25.364c5.461-1.431,10.999-0.543,15.577,2.078l0.232,0.156c4.406,2.622,7.901,6.91,9.33,12.239l9.148,33.987    c1.477,5.4,0.546,10.955-2.055,15.469c-2.632,4.56-7.01,8.107-12.479,9.57L50.881,208.294c-5.381,1.409-10.922,0.5-15.421-2.084    c-4.57-2.622-8.133-6.988-9.602-12.387l-9.149-33.987c-1.469-5.432-0.546-10.965,2.095-15.515    C21.437,139.807,25.774,136.26,31.243,134.797z M407.39,58.792l-16.624,4.499l7.523,27.878c5.032-0.887,12.468-3.027,17.467-4.692    L408.24,58.62L407.39,58.792z M389.141,53.858c5.225-1.415,10.81-3.087,16.038-4.262c2.123-0.545,4.266-0.578,5.967-0.234    c2.909,0.575,5.04,2.28,5.774,4.862c2.633,9.781,6.897,22.613,8.64,32.175c0.47,2.436-0.546,4.793-2.601,6.644    c-1.389,1.231-3.366,2.274-5.537,2.872c-5.346,1.253-10.734,3.067-16.079,4.305c-2.127,0.498-4.257,0.559-6.007,0.209    c-2.861-0.6-5.032-2.296-5.734-4.917l-8.523-31.677c-0.733-2.667,0.313-5.166,2.524-7.12    C384.991,55.492,386.938,54.436,389.141,53.858z M281.664,92.343c-5.381,1.431-11.379,2.74-16.616,4.498l7.517,27.878    c5.229-1.043,12.358-2.996,17.479-4.668l-7.479-27.88L281.664,92.343z M263.423,87.409l15.806-4.208    c2.211-0.583,4.414-0.662,6.244-0.304c2.865,0.591,5.027,2.272,5.727,4.917c2.6,9.548,7.054,22.898,8.639,32.197    c0.47,2.428-0.537,4.786-2.633,6.598c-1.352,1.215-3.334,2.272-5.501,2.856l-15.802,4.226c-2.211,0.6-4.462,0.638-6.244,0.288    c-2.904-0.6-5.076-2.296-5.766-4.902l-8.533-31.715c-0.694-2.624,0.313-5.175,2.516-7.106l0.354-0.302    C259.589,88.872,261.408,87.947,263.423,87.409z M486.464,461.275V298.43H46.351v162.846c0,4.548,1.898,8.688,4.923,11.686    c2.981,3.014,7.171,4.876,11.733,4.876h406.831c4.454,0,8.523-1.774,11.549-4.645l0.188-0.231    C484.605,469.963,486.464,465.823,486.464,461.275z M495.99,293.697v167.578c0,7.17-2.945,13.692-7.673,18.399l-0.345,0.313    c-4.687,4.523-11.123,7.33-18.134,7.33H63.008c-7.167,0-13.711-2.934-18.486-7.643c-4.719-4.707-7.66-11.229-7.66-18.399V293.697    c0-2.629,2.13-4.748,4.723-4.748h449.639C493.855,288.949,495.99,291.068,495.99,293.697z M111.894,226.799L94.7,226.853v28.844    c5.269,0.312,12.821,0.312,18.085,0v-28.844L111.894,226.799z M95.555,217.321h16.339c2.299,0,4.454,0.506,6.127,1.339    c2.641,1.323,4.298,3.485,4.298,6.187v32.842c0,2.689-1.657,4.907-4.298,6.21c-1.673,0.832-3.828,1.359-6.127,1.359H95.555    c-2.251,0-4.414-0.527-6.087-1.359c-2.632-1.303-4.297-3.521-4.297-6.21v-32.842c0-2.702,1.665-4.864,4.297-6.187    C91.141,217.827,93.303,217.321,95.555,217.321z M437.265,226.799l-17.211,0.054v28.844c5.272,0.312,12.829,0.312,18.094,0    v-28.844L437.265,226.799z M420.953,217.321h16.312c2.271,0,4.445,0.506,6.115,1.339c2.632,1.323,4.306,3.485,4.306,6.187v32.842    c0,2.689-1.674,4.907-4.306,6.21c-1.67,0.832-3.845,1.359-6.115,1.359h-16.312c-2.292,0-4.463-0.527-6.128-1.359    c-2.632-1.303-4.302-3.521-4.302-6.21v-32.842c0-2.702,1.67-4.864,4.302-6.187C416.49,217.827,418.661,217.321,420.953,217.321z     M372.211,226.799l-17.203,0.054v28.844c5.232,0.312,12.829,0.312,18.054,0v-28.844L372.211,226.799z M355.859,217.321h16.352    c2.243,0,4.414,0.506,6.087,1.339c2.632,1.323,4.294,3.485,4.294,6.187v32.842c0,2.689-1.662,4.907-4.294,6.21    c-1.673,0.832-3.844,1.359-6.087,1.359h-16.352c-2.252,0-4.454-0.527-6.084-1.359c-2.672-1.303-4.297-3.521-4.297-6.21v-32.842    c0-2.702,1.625-4.864,4.297-6.187C351.405,217.827,353.607,217.321,355.859,217.321z M307.117,226.799l-17.203,0.054v28.844    c5.277,0.312,12.829,0.312,18.094,0v-28.844L307.117,226.799z M290.813,217.321h16.304c2.291,0,4.462,0.506,6.127,1.339    c2.633,1.323,4.266,3.485,4.266,6.187v32.842c0,2.689-1.633,4.907-4.266,6.21c-1.665,0.832-3.836,1.359-6.127,1.359h-16.304    c-2.287,0-4.458-0.527-6.123-1.359c-2.633-1.303-4.298-3.521-4.298-6.21v-32.842c0-2.702,1.665-4.864,4.298-6.187    C286.355,217.827,288.526,217.321,290.813,217.321z M242.033,226.799l-17.202,0.054v28.844c5.272,0.312,12.829,0.312,18.093,0    v-28.844L242.033,226.799z M225.722,217.321h16.312c2.287,0,4.454,0.506,6.124,1.339c2.632,1.323,4.297,3.485,4.297,6.187v32.842    c0,2.689-1.665,4.907-4.297,6.21c-1.669,0.832-3.836,1.359-6.124,1.359h-16.312c-2.283,0-4.454-0.527-6.119-1.359    c-2.632-1.303-4.302-3.521-4.302-6.21v-32.842c0-2.702,1.669-4.864,4.302-6.187C221.268,217.827,223.438,217.321,225.722,217.321z     M176.988,226.799l-17.202,0.054v28.844c5.232,0.312,12.829,0.312,18.053,0v-28.844L176.988,226.799z M160.636,217.321h16.352    c2.251,0,4.414,0.506,6.079,1.339c2.641,1.323,4.302,3.485,4.302,6.187v32.842c0,2.689-1.629,4.907-4.302,6.21    c-1.665,0.832-3.828,1.359-6.079,1.359h-16.352c-2.251,0-4.462-0.527-6.083-1.359c-2.672-1.303-4.297-3.521-4.297-6.21v-32.842    c0-2.702,1.625-4.864,4.297-6.187C156.174,217.827,158.385,217.321,160.636,217.321z"/></g></g><text x="0" y="527" fill="#000000" font-size="5px" font-weight="bold" font-family="'Helvetica Neue', Helvetica, Arial-Unicode, Arial, Sans-serif">Created by ibrandify</text><text x="0" y="532" fill="#000000" font-size="5px" font-weight="bold" font-family="'Helvetica Neue', Helvetica, Arial-Unicode, Arial, Sans-serif">from the Noun Project</text></svg>